# xmcd
#
# Track frame offsets:
# 150
# 21807
# 39898
# 54696
# 75725
# 92002
# 106531
# 130011
# 148526
# 171036
# 186358
#
# Disc length: 2708 seconds
#
#
# Revision: 0
# Processed by: cddbd v1.5PL3 Copyright (c) Steve Scherf et al.
# Submitted via: FreeRIP 2.60 
#
DISCID=820a920b
DTITLE=McKay Brothers - McKay Brothers
DYEAR=2003
DGENRE=Country
TTITLE0=When I Reached the Colorado
TTITLE1=Friday Night
TTITLE2=Mi San Antonio
TTITLE3=Harrisburg
TTITLE4=Great Big Oldsmobile
TTITLE5=The South Coast of Texas
TTITLE6=Las Olas
TTITLE7=Hey Old Man
TTITLE8=Dirty Old Town
TTITLE9=Put Your Money Where Your Mouth Is
TTITLE10=A Pretty Bay Mare
EXTD=
EXTT0=
EXTT1=
EXTT2=
EXTT3=
EXTT4=
EXTT5=
EXTT6=
EXTT7=
EXTT8=
EXTT9=
EXTT10=
PLAYORDER=
